<?xml version="1.0" encoding="utf-8"?>
<!-- Generator: Adobe Illustrator 24.0.2, SVG Export Plug-In . SVG Version: 6.00 Build 0)  -->
<svg version="1.1" id="Layer_1" xmlns="http://www.w3.org/2000/svg" xmlns:xlink="http://www.w3.org/1999/xlink" x="0px" y="0px"
	 viewBox="0 0 76.7 76.7" style="enable-background:new 0 0 76.7 76.7;" xml:space="preserve">
<style type="text/css">
	.st0{fill:#54565A;}
	.st1{fill:#0097CE;}
	.st2{fill:#9D1D64;}
</style>
<g>
	<g>
		<g>
			<path class="st0" d="M35.8,8.3V0C15.8,1.3,0,17.9,0,38.3c0,5.9,1.3,11.5,3.7,16.5l10.6-6.4c-0.9-3.1-1.5-6.5-1.5-10
				C12.8,22.6,22.9,9.8,35.8,8.3z"/>
			<path class="st1" d="M76.7,38.3c0-20.1-15.4-36.5-35-38.2v8.3C54.2,10.3,63.9,23,63.9,38.3c0,3.7-0.6,7.2-1.6,10.5l10.5,6.4
				C75.3,50.1,76.7,44.4,76.7,38.3z"/>
			<path class="st2" d="M38.3,68.5c-9.3,0-17.4-5.9-21.8-14.6l-9.8,6C13.6,70,25.2,76.7,38.3,76.7c13,0,24.5-6.5,31.4-16.4l-9.8-6
				C55.4,62.8,47.5,68.5,38.3,68.5z"/>
		</g>
	</g>
</g>
</svg>
